<svg xmlns="http://www.w3.org/2000/svg" viewBox="0 0 24.51 24.63"><defs><style>.cls-1{fill:#fff;}</style></defs><title>Icon Standord weiss</title><g id="Ebene_2" data-name="Ebene 2"><g id="Calque_1" data-name="Calque 1"><path class="cls-1" d="M12.29,0h-.07C4.71,0,5.79,8,5.79,8c.69,5.13,5.56,10.82,6.43,11.79v.09l0-.05,0,.05v-.09c.87-1,5.74-6.66,6.43-11.79C18.72,8,19.8,0,12.29,0Zm0,10.3a3.51,3.51,0,1,1,3.47-3.51A3.51,3.51,0,0,1,12.26,10.3Z"/><path class="cls-1" d="M16.86,15.2c-.29.55-.6,1.08-.91,1.59,3.89.52,6.52,1.79,6.52,3,0,1.5-4.37,3.19-10.22,3.19S2,21.25,2,19.75c0-1.17,2.63-2.44,6.52-3-.31-.51-.62-1-.91-1.59C3.08,15.89,0,17.62,0,19.75c0,2.78,5.27,4.88,12.25,4.88s12.26-2.1,12.26-4.88C24.51,17.62,21.43,15.89,16.86,15.2Z"/></g></g></svg>